<svg id="visual" viewBox="0 0 900 900" width="900" height="900" xmlns="http://www.w3.org/2000/svg" xmlns:xlink="http://www.w3.org/1999/xlink" version="1.1"><rect x="0" y="0" width="900" height="900" fill="#001220"></rect><defs><linearGradient id="grad1_0" x1="0%" y1="0%" x2="100%" y2="100%"><stop offset="30%" stop-color="#001220" stop-opacity="1"></stop><stop offset="70%" stop-color="#001220" stop-opacity="1"></stop></linearGradient></defs><defs><linearGradient id="grad2_0" x1="0%" y1="0%" x2="100%" y2="100%"><stop offset="30%" stop-color="#001220" stop-opacity="1"></stop><stop offset="70%" stop-color="#001220" stop-opacity="1"></stop></linearGradient></defs><g transform="translate(900, 0)"><path d="M0 318.2C-37 302.8 -74.1 287.4 -113.7 274.4C-153.2 261.4 -195.3 250.8 -225 225C-254.7 199.2 -272 158.3 -285.5 118.2C-298.9 78.2 -308.6 39.1 -318.2 0L0 0Z" fill="#FBAE3C"></path></g><g transform="translate(0, 900)"><path d="M0 -318.2C42 -314 84 -309.9 121.8 -294C159.5 -278.1 192.9 -250.5 219.2 -219.2C245.5 -188 264.6 -153.1 279.9 -116C295.2 -78.8 306.7 -39.4 318.2 0L0 0Z" fill="#FBAE3C"></path></g></svg>