<svg id="visual" viewBox="0 0 900 900" width="900" height="900" xmlns="http://www.w3.org/2000/svg" xmlns:xlink="http://www.w3.org/1999/xlink" version="1.1"><rect x="0" y="0" width="900" height="900" fill="#242424"></rect><defs><linearGradient id="grad1_0" x1="0%" y1="0%" x2="100%" y2="100%"><stop offset="30%" stop-color="#242424" stop-opacity="1"></stop><stop offset="70%" stop-color="#242424" stop-opacity="1"></stop></linearGradient></defs><defs><linearGradient id="grad2_0" x1="0%" y1="0%" x2="100%" y2="100%"><stop offset="30%" stop-color="#242424" stop-opacity="1"></stop><stop offset="70%" stop-color="#242424" stop-opacity="1"></stop></linearGradient></defs><g transform="translate(900, 0)"><path d="M0 350C-65.9 343.6 -131.8 337.1 -175 303.1C-218.2 269.1 -238.8 207.6 -264.1 152.5C-289.5 97.4 -319.8 48.7 -350 0L0 0Z" fill="#16A34A"></path></g><g transform="translate(0, 900)"><path d="M0 -350C68.8 -345.2 137.6 -340.4 175 -303.1C212.4 -265.8 218.5 -195.9 242.5 -140C266.4 -84.1 308.2 -42 350 0L0 0Z" fill="#16A34A"></path></g></svg>